<svg width="37" height="37" viewBox="0 0 37 37" fill="none" xmlns="http://www.w3.org/2000/svg">
<path d="M0 4C0 1.79086 1.79086 0 4 0H33C35.2091 0 37 1.79086 37 4V33C37 35.2091 35.2091 37 33 37H4C1.79086 37 0 35.2091 0 33V4Z" fill="#007A54"/>
<path d="M33 35.5V37H4V35.5H33ZM35.5 33V4C35.5 2.61929 34.3807 1.5 33 1.5H4C2.61929 1.5 1.5 2.61929 1.5 4V33C1.5 34.3807 2.61929 35.5 4 35.5V37L3.79395 36.9951C1.7488 36.8913 0.108652 35.2512 0.00488281 33.2061L0 33V4C0 1.79086 1.79086 5.23458e-08 4 0H33C35.2091 0 37 1.79086 37 4V33C37 35.14 35.3194 36.8879 33.2061 36.9951L33 37V35.5C34.3807 35.5 35.5 34.3807 35.5 33Z" fill="#04AC74"/>
<path d="M10.6772 12.99V11.93C10.6772 11.5567 10.7472 11.2367 10.8872 10.97C11.0339 10.6967 11.2205 10.46 11.4472 10.26C11.6739 10.06 11.9139 9.87667 12.1672 9.71C12.4205 9.53667 12.6605 9.36667 12.8872 9.2C13.1139 9.03334 13.2972 8.84667 13.4372 8.64C13.5839 8.43334 13.6572 8.19 13.6572 7.91C13.6572 7.79667 13.6305 7.68667 13.5772 7.58C13.5239 7.46667 13.4405 7.37334 13.3272 7.3C13.2139 7.22 13.0705 7.18 12.8972 7.18C12.6905 7.18 12.5272 7.22334 12.4072 7.31C12.2872 7.39667 12.2005 7.51334 12.1472 7.66C12.0939 7.80001 12.0672 7.95667 12.0672 8.13H10.6072C10.6072 7.95 10.6205 7.73667 10.6472 7.49C10.6739 7.24334 10.7405 7.03 10.8472 6.85C11.0272 6.53667 11.2805 6.29667 11.6072 6.13C11.9405 5.96334 12.3739 5.88 12.9072 5.88C13.3139 5.88 13.6905 5.95667 14.0372 6.11C14.3839 6.25667 14.6639 6.47667 14.8772 6.77C15.0905 7.05667 15.1972 7.40667 15.1972 7.82C15.1972 8.22 15.1272 8.57 14.9872 8.87C14.8472 9.16334 14.6639 9.42 14.4372 9.64C14.2172 9.85334 13.9805 10.0433 13.7272 10.21C13.4805 10.3767 13.2439 10.5367 13.0172 10.69C12.7972 10.8433 12.6172 11.0033 12.4772 11.17C12.3372 11.33 12.2672 11.5167 12.2672 11.73H15.3072V12.99H10.6772Z" fill="white"/>
<path d="M5.53 13V11.74H6.84V8.33H5.57V7.08C5.96333 7.08 6.26 7.05666 6.46 7.00999C6.66 6.95666 6.79333 6.85333 6.86 6.69999C6.93333 6.54666 6.97 6.31666 6.97 6.00999H8.3V11.74H9.59V13H5.53Z" fill="white"/>
</svg>
