<svg width="37" height="37" viewBox="0 0 37 37" fill="none" xmlns="http://www.w3.org/2000/svg">
<path d="M0 4C0 1.79086 1.79086 0 4 0H33C35.2091 0 37 1.79086 37 4V33C37 35.2091 35.2091 37 33 37H4C1.79086 37 0 35.2091 0 33V4Z" fill="#00D492"/>
<path d="M33 35.5V37H4V35.5H33ZM35.5 33V4C35.5 2.61929 34.3807 1.5 33 1.5H4C2.61929 1.5 1.5 2.61929 1.5 4V33C1.5 34.3807 2.61929 35.5 4 35.5V37L3.79395 36.9951C1.7488 36.8913 0.108652 35.2512 0.00488281 33.2061L0 33V4C0 1.79086 1.79086 5.23458e-08 4 0H33C35.2091 0 37 1.79086 37 4V33C37 35.14 35.3194 36.8879 33.2061 36.9951L33 37V35.5C34.3807 35.5 35.5 34.3807 35.5 33Z" fill="#075A3F"/>
<path d="M11.2722 13V11.74H12.5822V8.33H11.3122V7.08C11.7055 7.08 12.0022 7.05666 12.2022 7.00999C12.4022 6.95666 12.5355 6.85333 12.6022 6.69999C12.6755 6.54666 12.7122 6.31666 12.7122 6.00999H14.0422V11.74H15.3322V13H11.2722Z" fill="white"/>
<path d="M5.56 12.99V11.93C5.56 11.5567 5.63 11.2367 5.77 10.97C5.91667 10.6967 6.10333 10.46 6.33 10.26C6.55667 10.06 6.79667 9.87667 7.05 9.71C7.30333 9.53667 7.54333 9.36667 7.77 9.2C7.99667 9.03334 8.18 8.84667 8.32 8.64C8.46667 8.43334 8.54 8.19 8.54 7.91C8.54 7.79667 8.51333 7.68667 8.46 7.58C8.40667 7.46667 8.32333 7.37334 8.21 7.3C8.09667 7.22 7.95333 7.18 7.78 7.18C7.57333 7.18 7.41 7.22334 7.29 7.31C7.17 7.39667 7.08333 7.51334 7.03 7.66C6.97667 7.80001 6.95 7.95667 6.95 8.13H5.49C5.49 7.95 5.50333 7.73667 5.53 7.49C5.55667 7.24334 5.62333 7.03 5.73 6.85C5.91 6.53667 6.16333 6.29667 6.49 6.13C6.82333 5.96334 7.25667 5.88 7.79 5.88C8.19667 5.88 8.57333 5.95667 8.92 6.11C9.26667 6.25667 9.54667 6.47667 9.76 6.77C9.97333 7.05667 10.08 7.40667 10.08 7.82C10.08 8.22 10.01 8.57 9.87 8.87C9.73 9.16334 9.54667 9.42 9.32 9.64C9.1 9.85334 8.86333 10.0433 8.61 10.21C8.36333 10.3767 8.12667 10.5367 7.9 10.69C7.68 10.8433 7.5 11.0033 7.36 11.17C7.22 11.33 7.15 11.5167 7.15 11.73H10.19V12.99H5.56Z" fill="white"/>
</svg>
